<?xml version="1.0" encoding="utf-8"?>
<!-- Generator: Adobe Illustrator 16.0.3, SVG Export Plug-In . SVG Version: 6.00 Build 0)  -->
<!DOCTYPE svg PUBLIC "-//W3C//DTD SVG 1.1//EN" "http://www.w3.org/Graphics/SVG/1.1/DTD/svg11.dtd">
<svg version="1.1" id="Layer_1" xmlns="http://www.w3.org/2000/svg" xmlns:xlink="http://www.w3.org/1999/xlink" x="0px" y="0px"
	 width="53.126px" height="46.752px" viewBox="0 0 53.126 46.752" enable-background="new 0 0 53.126 46.752" xml:space="preserve">
<text transform="matrix(1 0 0 1 74.6025 422.8525)" font-family="'Lane-Narrow'" font-size="18">Experience</text>
<text transform="matrix(1 0 0 1 89.3706 658.8525)" font-family="'Lane-Narrow'" font-size="18">My</text>
<text transform="matrix(1 0 0 1 119.7095 658.8525)" fill="none" stroke="#32B3D0" stroke-miterlimit="10" font-family="'Lane-Narrow'" font-size="18">Work</text>
<text transform="matrix(1 0 0 1 120.6641 224.0059)" font-family="'Lane-Narrow'" font-size="18">Skills</text>
<text transform="matrix(1 0 0 1 82.1084 124.6733)" font-family="'Lane-Narrow'" font-size="18">Education</text>
<text transform="matrix(1 0 0 1 -243.7031 200.3398)" font-family="'Lane-Narrow'" font-size="18">Education</text>
<text transform="matrix(1 0 0 1 159.5791 26.625)" font-family="'Lane-Narrow'" font-size="36">Latz</text>
<text transform="matrix(1 0 0 1 61.3291 26.625)" stroke="#000000" stroke-miterlimit="10" font-family="'Lane-Narrow'" font-size="36">Aaron</text>
<rect x="-507.552" y="88.225" stroke="#000000" stroke-miterlimit="10" width="100" height="18.744"/>
<rect x="-307.421" y="334.369" stroke="#000000" stroke-miterlimit="10" width="50" height="18.744"/>
<rect x="-307.421" y="355.619" stroke="#000000" stroke-miterlimit="10" width="25" height="18.744"/>
<rect x="-307.421" y="377.302" stroke="#000000" stroke-miterlimit="10" width="12.5" height="18.744"/>
<rect x="-307.421" y="399.81" stroke="#000000" stroke-miterlimit="10" width="6.25" height="18.744"/>
<rect x="-322.758" y="452.534" stroke="#000000" stroke-miterlimit="10" width="106.902" height="33.205"/>
<rect x="-335.012" y="452.534" stroke="#000000" stroke-miterlimit="10" width="9.485" height="33.205"/>
<rect x="-347.052" y="452.534" stroke="#000000" stroke-miterlimit="10" width="9.485" height="33.205"/>
<rect x="-356.04" y="452.534" stroke="#000000" stroke-miterlimit="10" width="6.25" height="33.205"/>
<rect x="-365.734" y="452.534" stroke="#000000" stroke-miterlimit="10" width="6.25" height="33.205"/>
<rect x="-373.986" y="452.534" stroke="#000000" stroke-miterlimit="10" width="4.808" height="33.205"/>
<rect x="-403.552" y="88.225" stroke="#000000" stroke-miterlimit="10" width="17.75" height="18.744"/>
<rect x="-381.052" y="88.225" stroke="#000000" stroke-miterlimit="10" width="11.75" height="18.744"/>
<rect x="-364.677" y="88.225" stroke="#000000" stroke-miterlimit="10" width="8" height="18.744"/>
<rect x="-351.177" y="88.225" stroke="#000000" stroke-miterlimit="10" width="4.125" height="18.744"/>
<rect x="-302.171" y="53.502" stroke="#000000" stroke-miterlimit="10" width="100" height="18.744"/>
<rect x="-323.921" y="53.502" stroke="#000000" stroke-miterlimit="10" width="17.75" height="18.744"/>
<rect x="-340.421" y="53.502" stroke="#000000" stroke-miterlimit="10" width="11.75" height="18.744"/>
<rect x="-353.046" y="53.502" stroke="#000000" stroke-miterlimit="10" width="8" height="18.744"/>
<rect x="-362.671" y="53.502" stroke="#000000" stroke-miterlimit="10" width="4.125" height="18.744"/>
<rect x="-323.921" y="205.069" width="154.938" height="3"/>
<rect x="-264.097" y="150.93" width="99.051" height="2.084"/>
<rect x="-284.108" y="150.93" width="17.581" height="2.084"/>
<rect x="-298.176" y="150.93" width="11.639" height="2.084"/>
<rect x="-308.53" y="150.93" width="7.924" height="2.084"/>
<rect x="-315.046" y="150.93" width="4.086" height="2.084"/>
<rect x="-262.054" y="122.193" width="99.051" height="2.084"/>
<rect x="-282.065" y="122.193" width="17.581" height="2.084"/>
<rect x="-296.133" y="122.193" width="11.639" height="2.084"/>
<rect x="-306.487" y="122.193" width="7.924" height="2.084"/>
<rect x="-313.003" y="122.193" width="4.086" height="2.084"/>
<rect x="-264.097" y="174.027" width="99.051" height="2.084"/>
<rect x="-284.108" y="174.027" width="17.581" height="2.084"/>
<rect x="-298.176" y="174.027" width="11.639" height="2.084"/>
<rect x="-308.53" y="174.027" width="7.924" height="2.084"/>
<rect x="-315.046" y="174.027" width="4.086" height="2.084"/>
<text transform="matrix(1 0 0 1 -310.4629 475.5771)" fill="#FFFFFF" stroke="#FFFFFF" stroke-miterlimit="10" font-family="'Lane-Narrow'" font-size="18">Experience</text>
<text transform="matrix(1 0 0 1 250.4121 119.2354)" font-family="'OpenSans-Bold'" font-size="10">Willamette University</text>
<text transform="matrix(1 0 0 1 250.4121 133.5142)" font-family="'OpenSans-Light'" font-size="10">B.A. Philosophy</text>
<text transform="matrix(1 0 0 1 250.4121 149.0142)" font-family="'OpenSans-Light'" font-size="10">2012</text>
<text transform="matrix(1 0 0 1 250.4121 416.7588)" font-family="'OpenSans-Bold'" font-size="10">Indiana University (IUPUI) </text>
<text transform="matrix(1 0 0 1 250.4121 431.0381)" font-family="'OpenSans-Light'" font-size="10">Apr 2013 - Present</text>
<text transform="matrix(1 0 0 1 250.4121 446.5381)" font-family="'OpenSans-Light'" font-size="10">Web developer/designer</text>
<text transform="matrix(1 0 0 1 250.4121 463.5381)" font-family="'OpenSans-Light'" font-size="10">Designed and Built school websites</text>
<text transform="matrix(1 0 0 1 250.4121 480.2041)" font-family="'OpenSans-Light'" font-size="10">Created HTML emails</text>
<text transform="matrix(1 0 0 1 250.4121 498.5381)"><tspan x="0" y="0" font-family="'OpenSans-Light'" font-size="10">Integrated front-end code with back-end</tspan><tspan x="0" y="12" font-family="'OpenSans-Light'" font-size="10">technologies (e.g. cms’ and relational</tspan><tspan x="0" y="24" font-family="'OpenSans-Light'" font-size="10">databases)</tspan></text>
<text transform="matrix(1 0 0 1 250.4121 541.2061)"><tspan x="0" y="0" font-family="'OpenSans-Light'" font-size="10">Converted procedural code into </tspan><tspan x="0" y="12" font-family="'OpenSans-Light'" font-size="10">Object-Oriented code</tspan></text>
<text transform="matrix(1 0 0 1 250.4121 598.0742)" font-family="'OpenSans-Bold'" font-size="10">Staples inc.</text>
<text transform="matrix(1 0 0 1 250.4121 612.3525)" font-family="'OpenSans-Light'" font-size="10">Mar 2012 - Aug 2013</text>
<text transform="matrix(1 0 0 1 250.4121 627.8525)" font-family="'OpenSans-Light'" font-size="10">Associate</text>
<text transform="matrix(1 0 0 1 250.4121 658.8525)" font-family="'OpenSans-Light'" font-size="10">Sold technology products</text>
<text transform="matrix(1 0 0 1 250.4121 643.8525)" font-family="'OpenSans-Light'" font-size="10">Repaired computers </text>
<text transform="matrix(1 0 0 1 358.0791 8.6733)" font-family="'OpenSans-Light'" font-size="11">317.372.3645</text>
<text transform="matrix(1 0 0 1 358.0791 27.082)" font-family="'OpenSans-Light'" font-size="11">latz.aaron@gmail.com</text>
<text transform="matrix(1 0 0 1 358.0791 45.4907)" font-family="'OpenSans-Light'" font-size="11">www.aaronlatz.com</text>
<text transform="matrix(1 0 0 1 339.9121 7.6733)" stroke="#000000" stroke-miterlimit="10" font-family="'Lane-Narrow'" font-size="11">p</text>
<text transform="matrix(1 0 0 1 339.9121 26.625)" stroke="#000000" stroke-miterlimit="10" font-family="'Lane-Narrow'" font-size="11">e</text>
<text transform="matrix(1 0 0 1 339.9121 45.0073)" stroke="#000000" stroke-miterlimit="10" font-family="'Lane-Narrow'" font-size="11">w</text>
<rect x="-323.921" y="206.007" fill="#FFFFFF" width="158.417" height="1"/>
<text transform="matrix(1 0 0 1 248.4121 218.8818)" font-family="'OpenSans-Bold'" font-size="10">PHP</text>
<text transform="matrix(1 0 0 1 329.627 218.8818)" font-family="'OpenSans-Bold'" font-size="10">jQuery</text>
<text transform="matrix(1 0 0 1 248.4121 240.2705)" font-family="'OpenSans-Bold'" font-size="10">MySQL</text>
<text transform="matrix(1 0 0 1 328.8594 239.7197)" font-family="'OpenSans-Bold'" font-size="10">Git</text>
<text transform="matrix(1 0 0 1 328.8594 260.5571)" font-family="'OpenSans-Bold'" font-size="10">Laravel</text>
<text transform="matrix(1 0 0 1 248.4121 261.6597)" font-family="'OpenSans-Bold'" font-size="10">CSS</text>
<text transform="matrix(1 0 0 1 248.4121 283.0483)" font-family="'OpenSans-Bold'" font-size="10">HTML</text>
<text transform="matrix(1 0 0 1 328.8594 281.395)" font-family="'OpenSans-Bold'" font-size="10">Photoshop</text>
<text transform="matrix(1 0 0 1 329.627 304.437)" font-family="'OpenSans-Bold'" font-size="10">Illustrator</text>
<text transform="matrix(1 0 0 1 329.627 325.8262)" font-family="'OpenSans-Bold'" font-size="10">ExpressionEngine</text>
<text transform="matrix(1 0 0 1 248.4121 304.437)" font-family="'OpenSans-Bold'" font-size="10">Linux</text>
<text transform="matrix(1 0 0 1 248.4121 325.8262)" font-family="'OpenSans-Bold'" font-size="10">Apache</text>
<text transform="matrix(1 0 0 1 248.4121 347.2148)" font-family="'OpenSans-Bold'" font-size="10">OOP</text>
<polygon fill="#32B3D0" points="158.693,427.455 158.693,428.622 -1.088,428.622 -1.088,430.622 158.693,430.622 159.693,430.622 
	164.036,430.622 164.036,427.455 "/>
<polygon fill="#32B3D0" points="158.693,226.84 158.693,228.007 -1.088,228.007 -1.088,230.007 158.693,230.007 159.693,230.007 
	164.036,230.007 164.036,226.84 "/>
<polygon fill="#32B3D0" points="158.693,128.84 158.693,130.007 -1.088,130.007 -1.088,132.007 158.693,132.007 159.693,132.007 
	164.036,132.007 164.036,128.84 "/>
<g>
	<polygon fill="#32B3D0" points="14.905,13.917 21.533,24.369 30.086,24.369 14.905,0 4.273,17.508 0,24.369 0,24.369 8.362,24.369 
			"/>
	<polygon fill="#9BD9E8" points="53.126,46.752 48.604,39.648 39.723,39.648 31.154,25.99 22.614,25.99 35.781,46.752 	"/>
</g>
</svg>
